<?xml version="1.0" encoding="UTF-8"?>
<svg id="Layer_2" data-name="Layer 2" xmlns="http://www.w3.org/2000/svg" viewBox="0 0 999.11 938.08">
  <defs>
    <style>
      .cls-1 {
        fill: #fed700;
      }

      .cls-2 {
        fill: #ee3028;
      }
    </style>
  </defs>
  <path class="cls-1" d="M705.68,351.26c-72.59,0-139.13,26.51-190.41,70.36-5.42,4.61-10.65,9.43-15.72,14.44-10.14,10.01-19.56,20.78-28.16,32.17-4.35,5.76-8.51,11.69-12.43,17.78-29.54,45.77-46.69,100.25-46.69,158.67s17.15,112.9,46.69,158.67c3.93,6.09,8.08,12.02,12.43,17.78-5.02,5.08-10.27,9.94-15.72,14.56-43.76,37.25-100.43,59.73-162.25,59.73-138.27,0-250.76-112.49-250.76-250.74s112.49-250.74,250.76-250.74c61.83,0,118.49,22.49,162.25,59.73,8.66-11.31,18.08-22.02,28.16-32.04-51.29-43.85-117.82-70.36-190.41-70.36C131.63,351.26,0,482.87,0,644.67s131.63,293.41,293.43,293.41c72.59,0,139.13-26.51,190.41-70.36,5.42-4.61,10.65-9.43,15.72-14.44,10.14-10.01,19.56-20.78,28.16-32.17,4.35-5.76,8.51-11.69,12.43-17.78,29.54-45.77,46.69-100.25,46.69-158.67s-17.15-112.9-46.69-158.67c-3.93-6.09-8.08-12.02-12.43-17.78,5.02-5.08,10.27-9.94,15.72-14.56,43.76-37.25,100.43-59.73,162.25-59.73,138.27,0,250.76,112.49,250.76,250.74s-112.49,250.74-250.76,250.74c-61.83,0-118.49-22.49-162.25-59.73-8.66,11.31-18.08,22.02-28.16,32.04,51.29,43.85,117.82,70.36,190.41,70.36,161.8,0,293.43-131.62,293.43-293.41s-131.63-293.41-293.43-293.41Zm-161.51,293.41c0,44.57-11.69,86.49-32.19,122.8-3.84,6.81-7.99,13.43-12.43,19.83-4.44-6.4-8.59-13.01-12.43-19.83-20.49-36.31-32.19-78.22-32.19-122.8s11.69-86.49,32.19-122.8c3.84-6.81,7.99-13.43,12.43-19.83,4.44,6.4,8.59,13.01,12.43,19.83,20.49,36.31,32.19,78.22,32.19,122.8Z"/>
  <path class="cls-2" d="M705.57,102.7c0,26.29-10.02,52.57-30.08,72.62l-30.7,30.7-145.24,145.24-145.24-145.24-30.7-30.7c-20.05-20.05-30.08-46.33-30.08-72.62s10.02-52.57,30.08-72.62c40.11-40.11,105.13-40.11,145.24,0l30.7,30.7,30.7-30.7c40.11-40.11,105.13-40.11,145.24,0,20.05,20.05,30.08,46.33,30.08,72.62Z"/>
</svg>